<svg viewBox="0 0 800 500" xmlns="http://www.w3.org/2000/svg">
  <!-- Background -->
  <rect width="800" height="500" fill="#f8f9fa" rx="10" ry="10"/>
  
  <!-- Title -->
  <text x="400" y="50" font-family="Arial, sans-serif" font-size="24" font-weight="bold" text-anchor="middle" fill="#333">Better UI Experience</text>
  
  <!-- Main Container -->
  <rect x="50" y="80" width="700" height="380" fill="#fff" stroke="#ddd" stroke-width="2" rx="8" ry="8"/>
  
  <!-- Top Toolbar -->
  <rect x="100" y="110" width="600" height="40" fill="#e0e0e0" stroke="#bdbdbd" stroke-width="1" rx="5" ry="5"/>
  
  <!-- Toolbar items -->
  <circle cx="130" cy="130" r="10" fill="#90caf9"/>
  <circle cx="160" cy="130" r="10" fill="#a5d6a7"/>
  <circle cx="190" cy="130" r="10" fill="#ffcc80"/>
  <circle cx="220" cy="130" r="10" fill="#ef9a9a"/>
  
  <rect x="260" y="120" width="60" height="20" fill="#e3f2fd" stroke="#90caf9" stroke-width="1" rx="3" ry="3"/>
  <rect x="330" y="120" width="60" height="20" fill="#e3f2fd" stroke="#90caf9" stroke-width="1" rx="3" ry="3"/>
  <rect x="400" y="120" width="60" height="20" fill="#e3f2fd" stroke="#90caf9" stroke-width="1" rx="3" ry="3"/>
  <rect x="470" y="120" width="60" height="20" fill="#e3f2fd" stroke="#90caf9" stroke-width="1" rx="3" ry="3"/>
  
  <circle cx="560" cy="130" r="10" fill="#d1c4e9"/>
  <circle cx="590" cy="130" r="10" fill="#d1c4e9"/>
  <circle cx="620" cy="130" r="10" fill="#d1c4e9"/>
  <circle cx="650" cy="130" r="10" fill="#d1c4e9"/>
  
  <!-- Left Sidebar -->
  <rect x="100" y="160" width="150" height="260" fill="#f5f5f5" stroke="#e0e0e0" stroke-width="1" rx="5" ry="5"/>
  
  <!-- Sidebar items -->
  <rect x="110" y="180" width="130" height="30" fill="#e3f2fd" stroke="#90caf9" stroke-width="1" rx="3" ry="3"/>
  <rect x="110" y="220" width="130" height="30" fill="#e8f5e9" stroke="#a5d6a7" stroke-width="1" rx="3" ry="3"/>
  <rect x="110" y="260" width="130" height="30" fill="#fff3e0" stroke="#ffcc80" stroke-width="1" rx="3" ry="3"/>
  <rect x="110" y="300" width="130" height="30" fill="#fce4ec" stroke="#f48fb1" stroke-width="1" rx="3" ry="3"/>
  <rect x="110" y="340" width="130" height="30" fill="#e8eaf6" stroke="#9fa8da" stroke-width="1" rx="3" ry="3"/>
  
  <!-- Main Content Area -->
  <rect x="260" y="160" width="440" height="260" fill="#ffffff" stroke="#e0e0e0" stroke-width="1" rx="5" ry="5"/>
  
  <!-- Content elements -->
  <rect x="280" y="180" width="400" height="40" fill="#f5f5f5" stroke="#e0e0e0" stroke-width="1" rx="3" ry="3"/>
  <line x1="300" y1="200" x2="670" y2="200" stroke="#9e9e9e" stroke-width="1"/>
  
  <rect x="280" y="230" width="190" height="90" fill="#e3f2fd" stroke="#90caf9" stroke-width="1" rx="3" ry="3"/>
  <rect x="490" y="230" width="190" height="90" fill="#e8f5e9" stroke="#a5d6a7" stroke-width="1" rx="3" ry="3"/>
  
  <rect x="280" y="330" width="400" height="70" fill="#fff3e0" stroke="#ffcc80" stroke-width="1" rx="3" ry="3"/>
  <circle cx="310" cy="365" r="15" fill="#ffcc80"/>
  <circle cx="350" cy="365" r="15" fill="#a5d6a7"/>
  <circle cx="390" cy="365" r="15" fill="#90caf9"/>
  <line x1="430" y1="355" x2="650" y2="355" stroke="#9e9e9e" stroke-width="1"/>
  <line x1="430" y1="375" x2="610" y2="375" stroke="#9e9e9e" stroke-width="1"/>
  
  <!-- Features List -->
  <rect x="100" y="430" width="600" height="20" fill="#f5f5f5" stroke="#ddd" stroke-width="0" rx="0" ry="0"/>
  <text x="200" y="445" font-family="Arial, sans-serif" font-size="14" text-anchor="middle" fill="#333">Intuitive Layout</text>
  <text x="400" y="445" font-family="Arial, sans-serif" font-size="14" text-anchor="middle" fill="#333">Customizable Views</text>
  <text x="600" y="445" font-family="Arial, sans-serif" font-size="14" text-anchor="middle" fill="#333">Drag-and-Drop Elements</text>
</svg>
